<!DOCTYPE svg PUBLIC "-//W3C//DTD SVG 20010904//EN" "http://www.w3.org/TR/2001/REC-SVG-20010904/DTD/svg10.dtd">
<svg version="1.0" xmlns="http://www.w3.org/2000/svg" width="512px" height="512px" viewBox="0 0 5120 5120" preserveAspectRatio="xMidYMid meet">
<g id="layer101" fill="#4bc3a8" stroke="none">
 <path d="M2190 4810 c-319 -61 -562 -152 -812 -304 -179 -109 -237 -155 -418 -336 -173 -172 -219 -229 -345 -430 -54 -85 -169 -322 -181 -370 -2 -8 -21 -69 -43 -135 -68 -205 -100 -422 -100 -670 0 -248 32 -465 100 -670 22 -66 41 -127 43 -135 12 -48 127 -285 181 -370 126 -200 172 -257 345 -430 173 -173 230 -219 430 -345 248 -156 583 -270 930 -315 97 -12 393 -12 490 0 347 45 682 159 930 315 200 126 257 172 430 345 175 175 207 215 347 432 17 26 56 99 87 163 161 324 235 645 236 1010 0 166 -13 299 -44 441 -8 38 -18 86 -21 108 -4 21 -20 77 -37 125 -17 47 -40 116 -53 152 -12 36 -30 77 -38 90 -9 13 -24 47 -35 74 -11 28 -30 66 -42 85 -12 19 -47 78 -77 130 -31 52 -64 104 -74 115 -10 11 -54 65 -97 120 -44 55 -120 139 -168 186 -82 78 -287 249 -300 249 -3 0 -20 11 -37 24 -18 13 -59 38 -92 56 -33 18 -72 41 -86 51 -14 10 -48 27 -75 37 -27 11 -65 29 -84 40 -19 11 -55 26 -80 32 -25 7 -49 15 -55 19 -28 22 -270 86 -434 116 -125 23 -591 20 -721 -5z m686 -245 c141 -24 324 -75 439 -122 310 -126 614 -348 807 -589 117 -146 261 -380 302 -492 8 -21 28 -73 45 -116 18 -44 33 -91 36 -105 2 -14 15 -71 30 -126 39 -149 46 -219 46 -450 0 -231 -7 -301 -46 -450 -15 -55 -28 -112 -30 -126 -3 -14 -18 -61 -36 -105 -17 -43 -37 -95 -45 -116 -63 -170 -266 -470 -428 -632 -472 -472 -1179 -691 -1806 -559 -41 8 -95 19 -120 24 -93 16 -460 161 -480 189 -3 4 -32 21 -65 39 -163 89 -405 300 -533 467 -33 43 -68 87 -77 97 -24 27 -116 180 -162 272 -44 86 -124 287 -128 320 -2 11 -12 56 -23 100 -21 82 -36 151 -47 218 -10 62 -7 465 4 542 6 39 22 115 36 170 14 55 28 111 30 125 2 14 18 61 35 105 18 44 38 96 46 117 41 112 185 346 302 492 193 241 497 463 807 589 110 45 295 97 430 121 115 20 514 21 631 1z"/>
 <path d="M2275 4450 c-129 -17 -337 -72 -424 -112 -158 -72 -261 -125 -311 -161 -235 -165 -388 -307 -499 -463 -35 -49 -72 -100 -82 -114 -11 -14 -35 -54 -53 -90 -19 -36 -44 -78 -55 -95 -12 -16 -21 -35 -21 -42 0 -6 -13 -40 -29 -75 -34 -75 -41 -95 -87 -257 -74 -264 -74 -688 0 -952 46 -162 53 -182 87 -257 16 -35 29 -69 29 -75 0 -7 9 -25 21 -42 11 -16 36 -59 55 -95 18 -36 42 -76 53 -90 10 -14 47 -65 82 -115 82 -115 259 -292 374 -374 50 -35 101 -72 115 -82 14 -11 54 -35 90 -53 36 -19 79 -44 95 -55 17 -12 35 -21 42 -21 6 0 40 -13 75 -29 85 -38 83 -37 243 -82 154 -43 283 -59 490 -59 207 0 336 16 490 59 160 45 158 44 243 82 35 16 69 29 75 29 7 0 26 9 42 21 17 11 59 36 95 55 36 18 76 42 90 53 14 10 65 47 115 82 115 82 292 259 374 374 35 50 72 101 82 115 11 14 35 54 53 90 19 36 44 79 55 95 12 17 21 35 21 42 0 6 13 40 29 75 34 75 41 95 87 257 68 244 73 673 10 906 -60 224 -67 243 -145 405 -49 104 -186 320 -202 320 -4 0 -11 10 -14 21 -4 12 -26 41 -49 64 -22 23 -65 67 -94 98 -30 32 -58 57 -62 57 -5 0 -23 18 -40 40 -17 22 -37 40 -44 40 -7 0 -23 11 -36 25 -22 23 -183 135 -194 135 -3 0 -30 16 -61 35 -30 20 -63 38 -73 42 -9 3 -50 21 -90 40 -66 31 -136 55 -287 99 -170 50 -526 66 -760 34z m235 -275 l0 -175 55 0 55 0 0 175 0 175 79 0 c100 0 135 -12 128 -43 -4 -12 -9 -41 -13 -63 l-6 -42 42 -7 c50 -8 56 -2 65 67 4 26 10 50 14 52 4 3 38 -4 76 -15 39 -11 80 -23 93 -26 33 -8 34 -16 12 -68 -11 -26 -20 -51 -20 -56 0 -9 59 -39 77 -39 5 0 19 27 32 60 l24 59 35 -15 c92 -38 152 -67 152 -74 0 -4 -11 -28 -25 -54 -14 -26 -25 -51 -25 -56 0 -4 16 -18 36 -30 40 -25 41 -25 86 53 24 40 30 44 46 24 6 -7 41 -33 77 -58 36 -24 65 -48 65 -52 0 -5 -16 -27 -35 -50 -19 -22 -35 -45 -34 -51 0 -6 15 -23 33 -38 l32 -26 39 48 c22 27 44 49 49 50 11 0 146 -135 146 -146 -1 -5 -23 -27 -50 -49 l-49 -40 34 -34 34 -34 45 36 c24 20 48 37 53 37 4 0 28 -29 52 -65 25 -36 51 -71 58 -77 21 -17 16 -26 -24 -48 -21 -11 -46 -26 -57 -34 -18 -14 -18 -16 4 -50 12 -20 25 -36 29 -36 5 0 29 11 55 25 26 14 51 25 55 25 8 0 36 -57 75 -152 l15 -36 -59 -21 c-33 -12 -60 -26 -60 -32 0 -5 7 -26 15 -45 16 -38 19 -39 94 -8 38 16 46 13 54 -18 3 -13 15 -54 26 -93 11 -38 18 -72 15 -76 -2 -4 -26 -10 -52 -14 -69 -9 -75 -15 -67 -65 l7 -42 42 6 c22 4 51 9 63 13 32 7 42 -26 40 -128 l-2 -84 -172 -3 -173 -2 0 -50 0 -50 175 0 175 0 -1 -82 c-2 -108 -10 -131 -47 -124 -105 21 -99 22 -107 -24 -8 -50 -2 -56 67 -65 26 -4 50 -10 52 -14 3 -4 -4 -38 -15 -76 -11 -39 -23 -80 -26 -93 -8 -33 -16 -34 -73 -12 -28 11 -53 20 -56 20 -6 0 -34 -65 -34 -79 0 -6 27 -20 60 -32 l59 -21 -15 -36 c-69 -167 -74 -171 -138 -127 -20 14 -41 25 -46 25 -4 0 -18 -16 -30 -36 -25 -40 -25 -41 53 -86 40 -24 44 -30 24 -46 -7 -6 -33 -41 -58 -77 -24 -36 -48 -65 -53 -65 -5 0 -29 16 -53 36 l-45 37 -34 -34 -33 -34 49 -40 c27 -22 49 -44 50 -49 0 -11 -135 -146 -148 -146 -5 0 -25 20 -43 45 -19 24 -38 44 -44 44 -13 0 -65 -45 -65 -57 0 -4 16 -27 35 -49 19 -23 35 -45 35 -50 0 -4 -23 -24 -51 -43 -28 -19 -63 -45 -79 -57 -15 -13 -30 -23 -33 -23 -3 0 -20 24 -37 53 -18 28 -34 53 -35 55 -2 2 -21 -7 -43 -19 l-40 -23 29 -55 c16 -29 29 -57 29 -61 0 -7 -103 -57 -162 -79 -26 -10 -27 -8 -49 48 l-23 58 -35 -9 c-20 -6 -40 -13 -44 -17 -4 -5 1 -32 12 -62 14 -36 17 -57 10 -64 -12 -12 -181 -55 -191 -49 -4 3 -10 28 -14 55 -8 57 -18 64 -70 54 -35 -6 -36 -7 -29 -43 3 -20 9 -47 12 -59 7 -30 -21 -40 -127 -49 l-79 -7 -3 69 -3 69 -52 3 -53 3 0 -66 c0 -52 -3 -67 -17 -72 -17 -7 -180 10 -189 20 -3 3 0 31 6 62 6 31 10 59 7 61 -3 3 -24 6 -48 7 l-43 2 -11 -55 c-6 -30 -15 -55 -20 -55 -27 0 -187 39 -191 47 -3 4 4 34 16 64 11 31 18 59 15 63 -4 3 -23 11 -44 17 l-38 11 -23 -59 c-13 -32 -23 -58 -24 -58 -1 0 -26 9 -56 21 -63 24 -130 60 -130 69 0 4 11 28 25 54 14 26 25 50 25 54 0 14 -72 56 -78 46 -4 -5 -20 -29 -36 -54 -16 -25 -30 -46 -31 -48 -5 -5 -92 53 -131 87 -26 23 -35 37 -28 46 5 7 22 29 38 49 l28 36 -28 30 c-16 16 -33 30 -39 29 -5 0 -26 -20 -45 -44 -19 -24 -39 -44 -45 -44 -11 -1 -145 134 -145 146 1 4 23 26 49 47 l48 40 -35 33 -35 33 -43 -35 c-23 -19 -45 -35 -48 -35 -21 0 -133 160 -118 169 5 3 30 19 56 35 25 17 46 33 46 36 0 4 -9 17 -19 29 -11 13 -22 28 -24 34 -2 7 -24 0 -60 -18 -39 -21 -59 -27 -67 -19 -7 7 -80 170 -80 180 0 1 27 11 61 23 45 17 59 26 55 38 -3 8 -6 20 -6 27 0 7 -6 20 -13 30 -12 16 -16 16 -71 -4 -31 -12 -59 -20 -60 -18 -9 10 -55 192 -51 198 3 5 27 11 53 15 69 9 74 14 66 64 -8 47 -4 47 -110 25 -39 -7 -44 6 -44 124 l0 82 175 0 175 0 0 50 0 50 -175 0 -175 0 0 84 c0 105 11 140 43 133 12 -4 41 -9 63 -13 41 -6 41 -6 48 31 9 49 -3 61 -69 70 -30 3 -55 9 -55 13 0 4 10 39 21 77 11 39 23 80 26 93 8 32 14 33 72 11 29 -10 56 -17 61 -14 9 6 34 75 28 79 -1 1 -29 13 -60 25 l-57 23 14 36 c40 95 68 152 76 152 4 0 29 -11 55 -25 26 -14 50 -25 55 -25 4 0 17 16 29 36 22 34 22 36 4 49 -11 8 -36 22 -56 31 -40 18 -47 34 -25 52 7 6 33 41 58 77 24 36 48 65 52 65 5 0 28 -16 51 -35 24 -19 47 -35 52 -34 5 0 21 15 36 33 l27 33 -49 37 c-28 21 -50 43 -50 48 0 13 135 148 146 148 5 -1 27 -23 49 -50 l39 -48 32 26 c18 15 33 31 33 36 1 5 -15 28 -34 52 -19 23 -35 46 -35 51 0 4 29 28 65 52 36 25 71 51 77 58 16 20 22 16 46 -24 45 -78 46 -78 86 -53 20 12 36 23 36 25 0 2 -11 25 -25 51 -14 26 -25 52 -25 59 0 11 47 36 152 79 l35 15 24 -59 c13 -33 27 -60 32 -60 17 0 77 30 77 38 0 5 -9 30 -21 56 -22 51 -20 61 13 69 13 3 54 15 93 26 38 11 72 18 76 15 4 -2 10 -26 14 -52 9 -69 15 -75 65 -67 39 7 42 9 37 34 -20 103 -21 100 4 110 13 5 61 10 107 10 l82 1 0 -175z"/>
 <path d="M2460 3366 c-47 -17 -221 -77 -387 -131 l-303 -100 0 -302 c0 -265 2 -302 15 -297 9 4 15 19 15 38 0 47 28 183 44 214 22 43 102 112 129 112 41 0 89 -42 122 -105 18 -33 33 -75 33 -94 2 -57 12 -48 12 11 0 142 91 298 173 298 71 0 129 -69 156 -187 l13 -52 41 15 c36 13 46 13 83 0 l43 -14 12 53 c27 123 109 210 175 184 83 -31 154 -169 154 -297 0 -59 10 -68 12 -11 2 48 58 150 98 177 48 32 74 28 126 -20 51 -47 70 -79 79 -129 3 -19 10 -52 15 -74 5 -22 10 -56 10 -76 0 -24 6 -39 15 -43 14 -5 15 30 13 297 l-3 302 -45 14 c-50 15 -215 70 -360 120 -52 19 -122 41 -155 51 -33 10 -96 32 -140 49 -44 17 -87 31 -95 30 -8 0 -53 -15 -100 -33z"/>
 <path d="M2246 2830 c-48 -43 -103 -160 -74 -160 7 0 62 18 121 40 60 22 117 40 128 40 25 0 24 15 -2 51 -46 65 -118 77 -173 29z"/>
 <path d="M2723 2815 c-44 -46 -48 -65 -13 -65 10 0 67 -18 127 -40 59 -22 113 -40 120 -40 9 0 9 9 -1 38 -35 98 -89 152 -154 152 -28 0 -43 -9 -79 -45z"/>
 <path d="M1903 2712 c-18 -15 -44 -52 -58 -82 -30 -66 -32 -85 -7 -75 18 8 52 20 175 62 43 14 80 29 82 34 3 4 -12 26 -33 48 -34 36 -44 41 -83 41 -33 0 -52 -7 -76 -28z"/>
 <path d="M3068 2699 c-22 -23 -36 -45 -31 -50 4 -4 44 -20 88 -34 44 -15 102 -35 129 -46 27 -10 52 -17 55 -14 10 11 -55 128 -87 156 -25 22 -43 29 -74 29 -35 0 -47 -6 -80 -41z"/>
 <path d="M2255 2508 c-143 -49 -309 -106 -370 -126 l-110 -37 0 -164 0 -163 85 -33 c47 -19 90 -34 96 -35 6 0 55 -18 110 -40 54 -22 105 -40 111 -40 7 0 57 -17 110 -38 54 -21 119 -46 146 -55 26 -10 67 -24 91 -34 43 -16 44 -16 122 15 44 18 84 32 89 32 6 0 54 18 108 40 53 22 103 40 110 40 6 0 57 18 111 40 55 22 104 40 110 40 6 1 49 16 96 35 l85 33 0 162 0 162 -110 37 c-533 182 -656 221 -691 220 -22 -1 -156 -42 -299 -91z m578 -389 c285 -96 291 -98 285 -105 -5 -5 -162 -63 -348 -129 -52 -18 -121 -43 -152 -54 -52 -19 -60 -20 -100 -6 -24 8 -52 20 -63 25 -11 5 -59 23 -107 40 -226 78 -266 92 -303 110 -35 16 -37 19 -20 26 96 38 516 174 538 174 16 0 137 -36 270 -81z"/>
 <path d="M2961 1759 c-18 -11 -88 -53 -155 -93 -181 -108 -242 -140 -257 -133 -8 4 -41 23 -74 42 -33 19 -82 47 -110 61 -27 15 -52 30 -55 34 -6 8 -170 101 -170 95 0 -5 61 -119 70 -130 4 -5 26 -44 48 -85 22 -41 57 -106 77 -145 21 -38 48 -86 60 -105 12 -19 50 -88 85 -153 89 -166 81 -160 118 -96 31 55 116 210 180 329 19 35 45 80 58 100 13 19 24 39 24 44 0 5 20 43 44 85 77 135 97 171 94 170 -2 0 -18 -9 -37 -20z"/>
 </g>

</svg>