<?xml version="1.0" ?><!DOCTYPE svg  PUBLIC '-//W3C//DTD SVG 1.1//EN'  'http://www.w3.org/Graphics/SVG/1.1/DTD/svg11.dtd'><svg enable-background="new 0 0 64 64" height="64px" id="Layer_1" version="1.1" viewBox="0 0 64 64" width="64px" xml:space="preserve" xmlns="http://www.w3.org/2000/svg" xmlns:xlink="http://www.w3.org/1999/xlink"><g><path d="M23.12,44.763c-0.064-0.242-0.161-0.609-0.5-0.854c-0.068-0.051-0.146-0.088-0.227-0.112   c-1.202-0.358-2.124,0.146-2.905,0.572c-0.31,0.171-0.435,0.171-0.594,0.104c-0.634-0.268-1.403-0.26-2.286,0.022   c-2.41,0.768-4.169,1.63-5.702,2.797c-0.167,0.127-0.273,0.318-0.293,0.528c-0.019,0.209,0.051,0.416,0.191,0.572   c0.249,0.274,0.334,0.647,0.433,1.079c0.056,0.247,0.132,0.515,0.23,0.784c-0.054,0.189-0.037,0.398,0.069,0.582   c0.14,0.24,0.392,0.374,0.65,0.374c0.127,0,0.257-0.032,0.375-0.101c0.051-0.03,0.102-0.063,0.16-0.121   c0.968-0.239,1.936-0.476,2.909-0.695c1.843-0.414,3.019-1.637,4.155-2.819l0.124-0.128c0.992,0.128,1.82-0.135,2.515-0.424   c0.732-0.304,1.028-1.115,0.734-2.019L23.12,44.763z M15.303,48.831c-0.844,0.19-1.686,0.396-2.529,0.604   c-0.025-0.097-0.05-0.191-0.074-0.298c-0.072-0.32-0.156-0.689-0.325-1.056c1.266-0.861,2.743-1.539,4.69-2.159   c0.533-0.169,0.952-0.194,1.25-0.067c0.131,0.055,0.258,0.093,0.381,0.118l0.092,0.377l-0.081,0.084   C17.678,47.505,16.706,48.516,15.303,48.831z M20.215,45.874l-0.041-0.171c0.025-0.014,0.051-0.027,0.076-0.041   c0.587-0.321,0.974-0.521,1.429-0.484c0.017,0.064,0.035,0.13,0.056,0.191c0.028,0.088,0.037,0.156,0.039,0.2   C21.24,45.786,20.755,45.92,20.215,45.874z"/><path d="M52.899,25.135c-0.021-0.015-0.06-0.055-0.099-0.097c0.055-0.058,0.113-0.11,0.164-0.174   c0.438-0.537,0.817-1.001,0.735-1.619c-0.076-0.571-0.535-0.971-0.978-1.288c-0.028-0.02-0.054-0.044-0.082-0.065   c0.031-0.041,0.058-0.082,0.089-0.123c0.319-0.412,0.913-1.18,0.3-2.18c-0.286-0.467-0.879-0.802-1.509-0.97   c0.424-1.047-0.005-2.054-1.094-2.567c-0.327-0.155-0.66-0.22-0.987-0.24c0.024-0.547-0.056-1.093-0.449-1.504   c-0.467-0.489-1.191-0.59-1.931-0.563c-0.194-0.733-0.76-1.248-1.647-1.48c-0.83-0.215-1.468,0.059-1.943,0.384   c-0.395-0.451-0.847-0.806-1.416-0.857c-0.611-0.049-1.142,0.229-1.709,0.704c-0.32-0.272-0.716-0.459-1.141-0.52   c-1.145-0.154-1.926,0.19-2.322,1.043c-0.001,0.001-0.005,0.005-0.006,0.007c-0.289-0.156-0.613-0.266-1.003-0.29   c-0.581-0.046-1.592,0.11-2.196,1.331c-0.133-0.037-0.263-0.066-0.38-0.082c-0.534-0.072-1.111,0.103-1.582,0.479   c-0.508,0.405-0.831,0.984-0.886,1.594c-0.014,0.159,0.003,0.32,0.02,0.481c-0.263,0.05-0.528,0.156-0.793,0.32   c-0.697,0.435-1.106,1.157-1.184,2.09c-0.032,0.381,0.018,0.685,0.107,0.938c-0.417,0.465-0.661,1.018-0.686,1.603   c-0.02,0.468,0.097,1.134,0.65,1.848c-0.307,0.363-0.501,0.81-0.47,1.296c0.036,0.527,0.123,1.756,1.375,2.225   c-0.053,0.179-0.086,0.364-0.088,0.554c-0.01,0.819,0.488,1.606,1.354,2.17c-0.144,0.368-0.183,0.781-0.095,1.224   c0.066,0.331,0.204,0.632,0.383,0.898c-0.043,0.024-0.086,0.045-0.131,0.077c-0.446,0.313-0.77,0.752-0.915,1.232   c-0.772,0.058-1.695,0.26-2.264,1.229c-0.709-0.061-1.339,0.193-1.75,0.364c-0.634,0.266-1.085,0.831-1.208,1.512   c-0.026,0.146-0.028,0.291-0.024,0.436c-0.582,0.096-1.544,0.259-1.913,1.368c-0.323,0.973,0.101,1.714,0.411,2.255   c0.006,0.012,0.012,0.022,0.019,0.034c-0.575,0.686-0.823,1.488-0.683,2.363c0.106,0.675,0.449,1.139,1.045,1.416   c0.255,0.119,0.261,0.215,0.265,0.292c0.052,0.829,0.325,1.442,0.812,1.825c0.35,0.273,0.785,0.411,1.302,0.411   c0.18,0,0.373-0.021,0.573-0.055c0.087,0.264,0.209,0.515,0.396,0.726c0.385,0.434,0.917,0.669,1.495,0.669   c0.113,0,0.228-0.009,0.343-0.027c0.401-0.062,0.789-0.196,1.153-0.384c0.25,0.356,0.575,0.684,1.031,0.849   c0.211,0.076,0.431,0.115,0.663,0.115c0.439,0,0.923-0.139,1.479-0.419c0.032-0.017,0.061-0.043,0.092-0.061   c0.438,0.377,0.98,0.537,1.337,0.642c0.133,0.038,0.278,0.063,0.432,0.063c0.512,0,1.107-0.279,1.592-1.289   c0.052-0.106,0.11-0.209,0.166-0.313c0.012,0.007,0.029,0.016,0.035,0.021c0.365,0.313,0.773,0.444,1.167,0.444   c0.485,0,0.948-0.202,1.278-0.513c0.238-0.226,0.404-0.451,0.525-0.671c0.288,0.1,0.582,0.168,0.875,0.168   c0.245,0,0.488-0.046,0.724-0.157c0.646-0.304,0.956-0.983,1.146-1.64c0.541,0.113,1.129,0.052,1.674-0.242   c0.646-0.346,0.951-0.931,0.951-1.698c0.022,0.001,0.042,0.006,0.064,0.006c0.153,0,0.313-0.013,0.475-0.04   c0.663-0.108,1.479-0.479,1.797-1.24c0.084-0.2,0.185-0.439,0.235-0.712c0.278-0.072,0.583-0.206,0.915-0.421   c0.685-0.442,1.064-1.404,0.903-2.288c-0.017-0.093-0.043-0.185-0.063-0.277c0.461-0.129,0.806-0.385,0.975-0.511   c0.613-0.453,0.932-1.221,0.833-2.003c-0.027-0.214-0.091-0.414-0.174-0.604c1.49-1.303,1.335-2.247,0.707-3.16   c0.571-0.332,0.942-0.742,1.087-1.254c0.178-0.628-0.005-1.303-0.508-2.035c0.242-0.203,0.531-0.455,0.706-0.875   C53.838,26.381,53.616,25.516,52.899,25.135z M50.439,33.552c-0.015,0.012-0.03,0.021-0.045,0.033   c-0.016-0.007-0.027-0.019-0.042-0.024c-0.209-0.085-0.309-0.317-0.331-0.507c-0.012-0.094-0.029-0.412,0.213-0.586   c0.187-0.134,0.36-0.248,0.533-0.344C51.305,32.776,51.234,32.868,50.439,33.552z M51.024,23.201   c0.151-0.263,0.248-0.375,0.326-0.421c0.165,0.139,0.33,0.275,0.5,0.396c0.171,0.122,0.267,0.207,0.32,0.261   c-0.081,0.126-0.244,0.325-0.374,0.484c-0.095,0.119-0.241,0.24-0.397,0.368c-0.025,0.021-0.052,0.043-0.077,0.064   c-0.089-0.057-0.175-0.103-0.25-0.144c-0.072-0.039-0.181-0.097-0.201-0.127C50.822,23.722,50.865,23.475,51.024,23.201z    M51.741,27.088c-0.027,0.022-0.056,0.046-0.085,0.07c-0.063-0.091-0.138-0.189-0.233-0.287c-0.086-0.086-0.129-0.236-0.117-0.411   c0.013-0.197,0.096-0.396,0.257-0.552c0.025,0.026,0.052,0.055,0.072,0.078c0.137,0.149,0.306,0.336,0.503,0.408   c0.008,0.027,0.009,0.153-0.077,0.362C52.021,26.852,51.913,26.944,51.741,27.088z M51.167,30.336   c-0.038-0.048-0.075-0.096-0.109-0.145c-0.298-0.427-0.271-0.564-0.271-0.565c0-0.002,0.038-0.151,0.549-0.443   c0.064-0.038,0.126-0.079,0.187-0.123c0.325,0.474,0.302,0.705,0.282,0.772C51.786,29.899,51.686,30.106,51.167,30.336z    M51.75,20.372c0.034,0.055,0.043,0.087,0.043,0.094c-0.004,0.066-0.163,0.273-0.249,0.384c-0.099,0.128-0.198,0.26-0.311,0.417   c-0.144,0.018-0.272,0.054-0.392,0.1c-0.412-0.359-0.545-0.786-0.423-1.349C50.817,19.902,51.615,20.175,51.75,20.372z    M50.129,18.059c-0.074,0.18-0.107,0.356-0.125,0.517c0,0-0.001,0.001-0.002,0.001c-0.481,0.134-1.105-0.038-1.201-0.121   c-0.068-0.198-0.007-0.831,0.096-1.061c0.313-0.208,0.687-0.084,0.889,0.013C50.298,17.648,50.203,17.877,50.129,18.059z    M47.906,15.343c0.078,0.108,0.027,0.571-0.019,0.899c-0.928,0.008-1.031-0.048-1.265-0.792c0.05-0.055,0.089-0.123,0.135-0.183   C47.722,15.184,47.905,15.342,47.906,15.343z M45.031,13.714c0.469,0.122,0.595,0.287,0.604,0.579   c-0.202,0.294-0.486,0.455-0.887,0.504c-0.206,0.018-0.295-0.049-0.64-0.48c-0.045-0.057-0.09-0.112-0.136-0.168   C44.447,13.747,44.688,13.625,45.031,13.714z M42.467,13.782c-0.027,0.092-0.045,0.186-0.052,0.28   c-0.002,0.026,0.011,0.05,0.01,0.076c-0.266,0.204-0.53,0.298-0.742,0.246c-0.208-0.054-0.399-0.266-0.547-0.59   c0.524-0.467,0.729-0.512,0.783-0.51C41.962,13.287,42.116,13.343,42.467,13.782z M38.994,13.46   c0.226,0.031,0.511,0.212,0.595,0.483c0.009,0.029,0.021,0.051,0.029,0.079c-0.133,0.13-0.265,0.262-0.417,0.364   c-0.138,0.093-0.468,0.144-0.834,0.064c-0.303-0.066-0.466-0.188-0.487-0.219c-0.007-0.019-0.019-0.032-0.025-0.05   c0.139-0.145,0.286-0.312,0.39-0.538C38.305,13.511,38.367,13.37,38.994,13.46z M35.779,14.23c0.388,0.023,0.544,0.133,0.669,0.462   l-0.024,0.034c-0.438,0.632-0.485,0.678-1.485,0.422c-0.015-0.036-0.031-0.068-0.048-0.103c0.017-0.057,0.031-0.114,0.054-0.17   C35.19,14.247,35.479,14.214,35.779,14.23z M32.649,15.635c0.133-0.106,0.284-0.169,0.403-0.169c0.015,0,0.028,0.001,0.041,0.003   c0.383,0.053,0.558,0.076,0.478,0.75c-0.094,0.772-0.11,0.878-0.838,1.042c-0.119-0.128-0.241-0.243-0.368-0.339   c0.003-0.171-0.008-0.329-0.023-0.458c-0.012-0.095-0.027-0.188-0.02-0.276C32.34,15.993,32.465,15.781,32.649,15.635z    M33.158,32.923c0.12,0.272,0.162,0.387,0.13,0.499c-0.13,0.452-0.359,0.715-1.148,0.723c-0.027,0-0.056-0.002-0.084-0.002   c-0.062-0.125-0.128-0.251-0.227-0.381c-0.035-0.047-0.074-0.117-0.055-0.238c0.028-0.182,0.166-0.379,0.353-0.51   c0.033-0.021,0.071-0.033,0.108-0.049c0.123-0.051,0.314-0.136,0.492-0.288c0.118,0.034,0.237,0.057,0.36,0.071   C33.111,32.806,33.135,32.869,33.158,32.923z M34.059,30.49c-0.084,0.189-0.545,0.646-0.778,0.778   c-0.364-0.028-0.709-0.352-0.79-0.756c-0.053-0.264-0.06-0.564,0.52-0.802c0.085-0.034,0.168-0.072,0.253-0.113   c0.12,0.077,0.239,0.155,0.35,0.243C34.081,30.211,34.089,30.354,34.059,30.49z M32.752,27.743   c-0.057,0.145-0.125,0.316-0.162,0.514c-0.048,0.023-0.095,0.045-0.144,0.064c-0.114,0.046-0.218,0.101-0.32,0.157   c-0.053-0.042-0.103-0.089-0.162-0.126c-0.452-0.284-0.709-0.62-0.705-0.923c0.004-0.271,0.224-0.551,0.619-0.786   c0.022-0.013,0.035-0.028,0.055-0.041l0.043,0.024c0.454,0.254,0.698,0.401,0.851,0.733C32.861,27.434,32.858,27.475,32.752,27.743   z M30.06,20.925c0.288,0.109,0.57,0.176,0.844,0.18c0.264,0.553,0.174,0.714-0.249,1.268c-0.036,0.047-0.045,0.058-0.272,0.111   l-0.165,0.04c-0.287-0.331-0.439-0.663-0.426-0.972C29.802,21.298,29.92,21.091,30.06,20.925z M30.597,23.976l0.008-0.002   c0.136,0.163,0.288,0.283,0.408,0.377c0.074,0.058,0.167,0.13,0.192,0.168c0.144,0.213,0.208,0.41,0.179,0.541   c-0.028,0.127-0.164,0.23-0.271,0.295c-0.113,0.067-0.202,0.147-0.301,0.222c-0.125-0.055-0.263-0.098-0.426-0.118   c-0.254-0.092-0.368-0.242-0.415-0.926C29.96,24.382,30.237,24.071,30.597,23.976z M30.365,19.072   c0.051-0.605,0.301-0.828,0.482-0.941c0.099-0.062,0.202-0.126,0.327-0.126c0.142,0,0.31,0.082,0.525,0.346   c0.025,0.622,0.003,0.847-0.292,1.071c-0.299,0.227-0.529,0.248-0.915,0.073C30.423,19.463,30.336,19.424,30.365,19.072z    M30.525,34.508c0.033,0.055,0.069,0.108,0.108,0.159c0.152,0.202,0.236,0.313-0.245,0.885c-0.179,0.213-0.41,0.383-0.887,0.206   c-0.052-0.02-0.082-0.063-0.146-0.399c-0.015-0.073-0.029-0.149-0.048-0.229C29.51,34.673,29.82,34.559,30.525,34.508z    M26.609,36.385c0.02-0.107,0.086-0.3,0.309-0.394c0.419-0.174,0.719-0.271,0.982-0.265c0.082,0.414,0.27,1.137,1.079,1.438   c0.3,0.111,0.596,0.166,0.881,0.166c0.641,0,1.227-0.277,1.677-0.813c0.148-0.176,0.396-0.483,0.56-0.873   c0.008,0,0.016,0.001,0.024,0.001c0.011,0,0.021,0,0.03,0c1.708-0.018,2.345-0.993,2.578-1.808   c0.186-0.644-0.036-1.148-0.198-1.518c-0.014-0.032-0.025-0.062-0.039-0.092c0.496-0.417,0.926-0.981,1.014-1.351   c0.291-1.22-0.62-1.94-0.963-2.212c-0.136-0.106-0.278-0.204-0.424-0.299c0.01-0.025,0.02-0.05,0.028-0.072   c0.131-0.332,0.351-0.888,0.045-1.556c-0.331-0.725-0.875-1.072-1.347-1.341c0-0.002,0.002-0.005,0.002-0.008   c0.086-0.381,0.086-0.985-0.397-1.707c-0.16-0.238-0.357-0.392-0.517-0.515c-0.001-0.001-0.002-0.002-0.003-0.003   c0.671-0.919,0.791-1.596,0.389-2.551c0.762-0.58,0.883-1.306,0.887-1.93c1.139-0.301,1.601-0.746,1.807-1.993   c0.301,0.056,0.573,0.092,0.803,0.092c0.781,0,1.212-0.346,1.717-1.039c0.067,0.028,0.127,0.062,0.199,0.086   c0.281,0.094,0.635,0.159,1.003,0.159c0.444,0,0.911-0.096,1.298-0.354c0.14-0.092,0.264-0.195,0.38-0.299   c0.327,0.303,0.661,0.441,0.897,0.501c0.163,0.042,0.33,0.063,0.498,0.063c0.441,0,0.892-0.149,1.314-0.421   c0.333,0.391,0.803,0.825,1.554,0.825c0.082,0,0.166-0.006,0.254-0.017c0.131-0.016,0.249-0.055,0.372-0.085   c0.395,1.021,0.902,1.419,2.002,1.515c-0.058,0.548-0.003,1.098,0.153,1.406c0.246,0.475,0.807,0.779,1.43,0.915   c-0.107,0.923,0.19,1.737,0.862,2.375c-0.007,0.012-0.017,0.027-0.022,0.038c-0.326,0.561-0.435,1.144-0.342,1.838   c0.081,0.583,0.419,0.899,0.711,1.09c-0.161,0.298-0.265,0.635-0.287,0.986c-0.04,0.613,0.156,1.17,0.546,1.561   c0.015,0.016,0.035,0.05,0.052,0.073c-0.459,0.285-0.943,0.68-1.083,1.3c-0.146,0.654,0.168,1.254,0.449,1.672   c-0.145,0.091-0.281,0.187-0.414,0.281c-0.604,0.436-0.921,1.195-0.826,1.983c0.021,0.181,0.069,0.352,0.13,0.515   c-0.202,0.097-0.43,0.215-0.645,0.422c-0.638,0.614-0.684,1.31-0.643,1.89c-0.471,0.134-0.869,0.398-1.147,0.584   c-0.645,0.432-0.937,1.279-0.76,2.105c-0.195,0.057-0.372,0.126-0.516,0.184l-0.204,0.079c-0.469,0.173-0.646,0.674-0.738,1.035   c-0.019,0.073-0.1,0.42-0.131,0.826c-0.066,0.011-0.128,0.018-0.184,0.01c-0.767-0.016-1.319,0.146-1.695,0.528   c-0.277,0.284-0.432,0.661-0.48,1.128c-0.114-0.014-0.226-0.024-0.326-0.033l-0.239-0.022c-0.63-0.068-1.233,0.151-1.641,0.612   c-0.228,0.257-0.379,0.577-0.458,0.928c-0.006-0.002-0.01-0.002-0.016-0.004c-0.162-0.042-0.324-0.083-0.49-0.109   c-1.013-0.154-1.572,0.313-1.896,0.829c-1.039-0.683-2.1-0.649-3.023,0.092c-0.115-0.074-0.239-0.136-0.371-0.185   c-0.534-0.195-1.121-0.147-1.612,0.135c-0.189,0.109-0.373,0.229-0.558,0.346c-0.262-0.567-0.867-1.281-2.196-1.062   c-0.141,0.022-0.262,0.063-0.374,0.103c-0.136-0.368-0.375-0.702-0.74-0.984c-0.167-0.129-0.387-0.293-0.642-0.423   c0.255-0.586,0.091-1.116-0.021-1.481c-0.032-0.104-0.066-0.207-0.083-0.31c-0.035-0.219-0.103-0.391-0.184-0.542   c0.237-0.314,0.414-0.651,0.552-0.963c0.563-1.26,0.081-2.09-0.423-2.566C26.576,36.709,26.593,36.476,26.609,36.385z M24.83,41.1   c0.087,0.013,0.174,0.024,0.262,0.035c0.101,0.011,0.253,0.027,0.26,0.071c0.028,0.174,0.079,0.346,0.132,0.517   c0.107,0.348,0.106,0.401,0.057,0.479c-0.135,0.209-0.177,0.418-0.204,0.6c-0.073,0.043-0.146,0.083-0.221,0.14   c-0.136-0.111-0.294-0.218-0.49-0.31c-0.136-0.063-0.168-0.096-0.199-0.292C24.35,41.862,24.484,41.472,24.83,41.1z M24.621,38.395   c0.07-0.213,0.138-0.264,0.742-0.362l0.373-0.059c0.005,0.005,0.008,0.012,0.014,0.017c0.18,0.17,0.31,0.353,0.081,0.864   c-0.131,0.295-0.294,0.575-0.503,0.798c-0.023-0.003-0.05-0.007-0.071-0.009c-0.074-0.008-0.148-0.016-0.221-0.029l-0.024-0.003   c-0.034-0.06-0.067-0.119-0.102-0.179C24.619,38.924,24.519,38.703,24.621,38.395z M25.991,44.927   c-0.117-0.092-0.195-0.314-0.227-0.623c0.083-0.047,0.169-0.101,0.252-0.167c0.155-0.123,0.17-0.133,0.704,0.279   c0.164,0.126,0.251,0.268,0.222,0.525l-0.225,0.042C26.377,45.044,26.118,45.026,25.991,44.927z M28.943,46.349   c-0.248,0.037-0.402-0.063-0.483-0.153c-0.101-0.114-0.131-0.276-0.124-0.447c0.139-0.036,0.266-0.083,0.372-0.125   c0.086-0.034,0.175-0.069,0.225-0.077c0.499-0.077,0.552,0.074,0.628,0.288c0.032,0.088,0.069,0.173,0.102,0.26   C29.435,46.215,29.198,46.31,28.943,46.349z M31.868,46.886c-0.116-0.042-0.24-0.175-0.367-0.374   c0.23-0.147,0.46-0.295,0.696-0.432c0.102-0.059,0.228-0.068,0.343-0.025c0.051,0.019,0.174,0.076,0.223,0.214   c0.041,0.116,0.072,0.234,0.107,0.353c-0.016,0.01-0.028,0.023-0.045,0.031C32.389,46.872,32.057,46.953,31.868,46.886z    M35.341,47.131c-0.579-0.169-0.852-0.296-0.933-0.602c-0.04-0.154-0.092-0.306-0.139-0.458c0.512-0.481,0.959-0.446,1.599,0.088   c0.004,0.004,0.008,0.005,0.012,0.009c-0.096,0.176-0.193,0.351-0.279,0.531C35.44,47.031,35.341,47.119,35.341,47.131z    M38.131,45.916c-0.159-0.137-0.321-0.218-0.465-0.285c0.14-0.28,0.271-0.265,0.453-0.238c0.114,0.018,0.227,0.049,0.34,0.078   s0.238,0.059,0.365,0.085c-0.044,0.096-0.113,0.204-0.256,0.34C38.545,45.917,38.342,46.098,38.131,45.916z M41.084,44.969   c-0.028,0.017-0.22,0.044-0.772-0.198c-0.052-0.326,0.023-0.565,0.126-0.682c0.053-0.061,0.147-0.139,0.346-0.115l0.286,0.027   c0.168,0.014,0.303,0.028,0.422,0.053C41.294,44.842,41.105,44.958,41.084,44.969z M43.833,43.123   c-0.306,0.165-0.614,0.173-0.841,0.044c0.014-0.077,0.03-0.153,0.027-0.247c-0.021-0.374,0.051-0.457,0.051-0.457   c0.001-0.001,0.112-0.099,0.57-0.081c0.125,0.005,0.24-0.006,0.352-0.019c0.001,0.048-0.004,0.091,0.003,0.143   C44.063,43.001,43.947,43.063,43.833,43.123z M46.428,40.937c-0.021,0.042-0.174,0.182-0.487,0.264   c-0.248,0.066-0.459,0.059-0.575,0.04c-0.005-0.256,0.05-0.678,0.119-0.906l0.024-0.009c0.548-0.218,0.636-0.21,0.712-0.126   c0.104,0.111,0.226,0.221,0.363,0.314C46.558,40.627,46.498,40.77,46.428,40.937z M48.166,39.079   c-0.582,0.378-0.702,0.255-0.849,0.096c-0.082-0.088-0.168-0.155-0.254-0.219c-0.019-0.125-0.044-0.263-0.099-0.411   c-0.115-0.309-0.018-0.578,0.096-0.654c0.554-0.369,0.848-0.507,1.124-0.345c0.017,0.01,0.031,0.013,0.048,0.021l0.02,0.078   c0.058,0.224,0.115,0.448,0.156,0.675C48.47,38.654,48.309,38.987,48.166,39.079z M49.901,36.059   c-0.526,0.392-0.738,0.32-0.961,0.191c-0.015-0.009-0.029-0.012-0.045-0.021c-0.058-0.55-0.057-0.768,0.163-0.979   c0.071-0.068,0.196-0.127,0.341-0.195c0.093-0.043,0.197-0.094,0.305-0.153c0.03,0.014,0.055,0.037,0.086,0.05   c0.279,0.113,0.338,0.41,0.35,0.498C50.151,35.542,50.169,35.86,49.901,36.059z"/></g></svg>